<mxfile modified="2021-05-12T09:48:31.946Z" host="app.diagrams.net" agent="5.0 (Windows NT 10.0; Win64; x64) AppleWebKit/537.36 (KHTML, like Gecko) Chrome/83.0.4103.61 Safari/537.36" etag="6kVR9u142fjB8lz66f-J" version="14.6.5" type="github">
  <diagram id="f106602c-feb2-e66a-4537-3a34d633f6aa" name="Page-1">
    <mxGraphModel dx="782" dy="483" grid="1" gridSize="10" guides="1" tooltips="1" connect="1" arrows="1" fold="1" page="1" pageScale="1" pageWidth="1169" pageHeight="827" background="#ffffff" math="0" shadow="0">
      <root>
        <mxCell id="0" />
        <mxCell id="1" parent="0" />
        <mxCell id="G245-s3OqqWEg4Bqu4Ok-721" value="" style="fillColor=#F6F6F6;strokeColor=none;shadow=0;gradientColor=none;fontSize=14;align=left;spacing=10;fontColor=#717171;9E9E9E;verticalAlign=top;spacingTop=-4;fontStyle=0;spacingLeft=40;html=1;" parent="1" vertex="1">
          <mxGeometry x="450" y="780" width="420" height="150" as="geometry" />
        </mxCell>
        <mxCell id="14" value="" style="fillColor=#F6F6F6;strokeColor=none;shadow=0;gradientColor=none;fontSize=14;align=left;spacing=10;fontColor=#717171;9E9E9E;verticalAlign=top;spacingTop=-4;fontStyle=0;spacingLeft=40;html=1;" parent="1" vertex="1">
          <mxGeometry x="450" y="100" width="420" height="430" as="geometry" />
        </mxCell>
        <mxCell id="711" value="任务编辑" style="rounded=1;absoluteArcSize=1;arcSize=2;html=1;strokeColor=none;gradientColor=none;shadow=0;dashed=0;strokeColor=none;fontSize=12;fontColor=#9E9E9E;align=left;verticalAlign=top;spacing=10;spacingTop=-4;fillColor=#E1F5FE;" parent="1" vertex="1">
          <mxGeometry x="450" y="100" width="420" height="220" as="geometry" />
        </mxCell>
        <mxCell id="712" style="edgeStyle=orthogonalEdgeStyle;rounded=0;html=1;labelBackgroundColor=none;startFill=1;startSize=4;endArrow=blockThin;endFill=1;endSize=4;jettySize=auto;orthogonalLoop=1;strokeColor=#4284F3;strokeWidth=2;fontSize=12;fontColor=#000000;align=center;dashed=0;" parent="1" source="705" target="711" edge="1">
          <mxGeometry relative="1" as="geometry">
            <Array as="points">
              <mxPoint x="420" y="230" />
              <mxPoint x="420" y="190" />
            </Array>
          </mxGeometry>
        </mxCell>
        <mxCell id="705" value="运营人员" style="rounded=1;absoluteArcSize=1;arcSize=2;html=1;strokeColor=none;gradientColor=none;shadow=0;dashed=0;strokeColor=none;fontSize=12;fontColor=#9E9E9E;align=left;verticalAlign=top;spacing=10;spacingTop=-4;fillColor=#FFF8E1;" parent="1" vertex="1">
          <mxGeometry x="250" y="170" width="120" height="100" as="geometry" />
        </mxCell>
        <mxCell id="2" value="关键词回复&amp;nbsp; Flow &amp;amp;&amp;nbsp;Interactive" style="fillColor=#4DA1F5;strokeColor=none;shadow=1;gradientColor=none;fontSize=14;align=left;spacingLeft=50;fontColor=#ffffff;html=1;" parent="1" vertex="1">
          <mxGeometry x="120" y="40" width="1160" height="50" as="geometry" />
        </mxCell>
        <mxCell id="697" value="" style="strokeColor=#dddddd;fillColor=#ffffff;shadow=1;strokeWidth=1;rounded=1;absoluteArcSize=1;arcSize=2;fontSize=10;fontColor=#9E9E9E;align=center;html=1;" parent="1" vertex="1">
          <mxGeometry x="462" y="160" width="150" height="60" as="geometry" />
        </mxCell>
        <mxCell id="698" value="&lt;font color=&quot;#000000&quot;&gt;增、删、改、查&lt;/font&gt;&lt;br&gt;Task Console" style="dashed=0;connectable=0;html=1;fillColor=#5184F3;strokeColor=none;shape=mxgraph.gcp2.hexIcon;prIcon=cloud_storage;part=1;labelPosition=right;verticalLabelPosition=middle;align=left;verticalAlign=middle;spacingLeft=5;fontColor=#999999;fontSize=12;" parent="697" vertex="1">
          <mxGeometry y="0.5" width="44" height="39" relative="1" as="geometry">
            <mxPoint x="5" y="-19.5" as="offset" />
          </mxGeometry>
        </mxCell>
        <mxCell id="719" style="edgeStyle=orthogonalEdgeStyle;rounded=0;html=1;labelBackgroundColor=none;startFill=1;startSize=4;endArrow=blockThin;endFill=1;endSize=4;jettySize=auto;orthogonalLoop=1;strokeColor=#4284F3;strokeWidth=2;fontSize=12;fontColor=#000000;align=center;dashed=0;" parent="1" edge="1">
          <mxGeometry relative="1" as="geometry">
            <Array as="points">
              <mxPoint x="888" y="178" />
            </Array>
            <mxPoint x="898" y="178" as="sourcePoint" />
            <mxPoint x="938" y="178" as="targetPoint" />
          </mxGeometry>
        </mxCell>
        <mxCell id="G245-s3OqqWEg4Bqu4Ok-720" value="" style="verticalLabelPosition=bottom;html=1;verticalAlign=top;align=center;strokeColor=none;fillColor=#00BEF2;shape=mxgraph.azure.mobile;pointerEvents=1;" parent="1" vertex="1">
          <mxGeometry x="519.5" y="827" width="35" height="50" as="geometry" />
        </mxCell>
        <mxCell id="G245-s3OqqWEg4Bqu4Ok-722" value="&lt;span style=&quot;color: rgba(0 , 0 , 0 , 0) ; font-family: monospace ; font-size: 0px&quot;&gt;%3CmxGraphModel%3E%3Croot%3E%3CmxCell%20id%3D%220%22%2F%3E%3CmxCell%20id%3D%221%22%20parent%3D%220%22%2F%3E%3CmxCell%20id%3D%222%22%20value%3D%22%22%20style%3D%22fillColor%3D%23F6F6F6%3BstrokeColor%3Dnone%3Bshadow%3D0%3BgradientColor%3Dnone%3BfontSize%3D14%3Balign%3Dleft%3Bspacing%3D10%3BfontColor%3D%23717171%3B9E9E9E%3BverticalAlign%3Dtop%3BspacingTop%3D-4%3BfontStyle%3D0%3BspacingLeft%3D40%3Bhtml%3D1%3B%22%20vertex%3D%221%22%20parent%3D%221%22%3E%3CmxGeometry%20x%3D%22450%22%20y%3D%22100%22%20width%3D%22420%22%20height%3D%22430%22%20as%3D%22geometry%22%2F%3E%3C%2FmxCell%3E%3C%2Froot%3E%3C%2FmxGraphModel%3E&lt;/span&gt;" style="verticalLabelPosition=bottom;html=1;verticalAlign=top;align=center;strokeColor=none;fillColor=#00BEF2;shape=mxgraph.azure.user;" parent="1" vertex="1">
          <mxGeometry x="286.25" y="210" width="47.5" height="50" as="geometry" />
        </mxCell>
        <mxCell id="G245-s3OqqWEg4Bqu4Ok-725" value="" style="html=1;fillColor=#5184F3;strokeColor=none;verticalAlign=top;labelPosition=center;verticalLabelPosition=bottom;align=center;spacingTop=-6;fontSize=11;fontStyle=1;fontColor=#999999;shape=mxgraph.gcp2.hexIcon;prIcon=cloud_run" parent="1" vertex="1">
          <mxGeometry x="490" y="414" width="66" height="58.5" as="geometry" />
        </mxCell>
        <mxCell id="G245-s3OqqWEg4Bqu4Ok-726" value="Cloud Run" style="html=1;fillColor=#5184F3;strokeColor=none;verticalAlign=top;labelPosition=center;verticalLabelPosition=bottom;align=center;spacingTop=-6;fontSize=11;fontStyle=1;fontColor=#999999;shape=mxgraph.gcp2.hexIcon;prIcon=cloud_run" parent="1" vertex="1">
          <mxGeometry x="490" y="440" width="66" height="58.5" as="geometry" />
        </mxCell>
        <mxCell id="707" value="执行回复" style="rounded=1;absoluteArcSize=1;arcSize=2;html=1;strokeColor=none;gradientColor=none;shadow=0;dashed=0;strokeColor=none;fontSize=12;fontColor=#9E9E9E;align=left;verticalAlign=top;spacing=10;spacingTop=-4;fillColor=#F1F8E9;" parent="1" vertex="1">
          <mxGeometry x="450" y="320" width="420" height="310" as="geometry" />
        </mxCell>
        <mxCell id="G245-s3OqqWEg4Bqu4Ok-728" value="" style="shape=mxgraph.gcp2.doubleRect;strokeColor=#dddddd;shadow=1;strokeWidth=1;" parent="1" vertex="1">
          <mxGeometry x="462" y="372" width="158" height="68" as="geometry" />
        </mxCell>
        <mxCell id="G245-s3OqqWEg4Bqu4Ok-729" value="&lt;font color=&quot;#000000&quot;&gt;匹配&lt;/font&gt;" style="dashed=0;connectable=0;html=1;fillColor=#5184F3;strokeColor=none;shape=mxgraph.gcp2.hexIcon;prIcon=persistent_disk;part=1;labelPosition=right;verticalLabelPosition=middle;align=left;verticalAlign=middle;spacingLeft=5;fontColor=#999999;fontSize=12;" parent="G245-s3OqqWEg4Bqu4Ok-728" vertex="1">
          <mxGeometry y="0.5" width="44" height="39" relative="1" as="geometry">
            <mxPoint x="5" y="-19.5" as="offset" />
          </mxGeometry>
        </mxCell>
        <mxCell id="G245-s3OqqWEg4Bqu4Ok-730" value="" style="html=1;fillColor=#2875E2;strokeColor=#ffffff;verticalAlign=top;labelPosition=center;verticalLabelPosition=bottom;align=center;spacingTop=-6;fontSize=12;fontStyle=1;fontColor=#000000;shape=mxgraph.gcp2.hexIcon;prIcon=cloud_run;dashed=0;fontFamily=Helvetica;" parent="G245-s3OqqWEg4Bqu4Ok-728" vertex="1">
          <mxGeometry y="10" width="50" height="48" as="geometry" />
        </mxCell>
        <mxCell id="G245-s3OqqWEg4Bqu4Ok-731" value="" style="strokeColor=#dddddd;shadow=1;strokeWidth=1;rounded=1;absoluteArcSize=1;arcSize=2;" parent="1" vertex="1">
          <mxGeometry x="706.25" y="130" width="125" height="40" as="geometry" />
        </mxCell>
        <mxCell id="G245-s3OqqWEg4Bqu4Ok-732" value="&lt;font color=&quot;#000000&quot;&gt;auto_answer_table&lt;/font&gt;&lt;br&gt;Cloud SQL" style="dashed=0;connectable=0;html=1;fillColor=#5184F3;strokeColor=none;shape=mxgraph.gcp2.hexIcon;prIcon=cloud_sql;part=1;labelPosition=right;verticalLabelPosition=middle;align=left;verticalAlign=middle;spacingLeft=5;fontColor=#999999;fontSize=12;" parent="G245-s3OqqWEg4Bqu4Ok-731" vertex="1">
          <mxGeometry y="0.5" width="44" height="39" relative="1" as="geometry">
            <mxPoint x="5" y="-19.5" as="offset" />
          </mxGeometry>
        </mxCell>
        <mxCell id="G245-s3OqqWEg4Bqu4Ok-737" style="edgeStyle=orthogonalEdgeStyle;rounded=0;html=1;labelBackgroundColor=none;startFill=1;startSize=4;endArrow=blockThin;endFill=1;endSize=4;jettySize=auto;orthogonalLoop=1;strokeColor=#4284F3;strokeWidth=2;fontSize=12;fontColor=#000000;align=center;dashed=0;entryX=0;entryY=0.25;entryDx=0;entryDy=0;exitX=1;exitY=0.5;exitDx=0;exitDy=0;" parent="1" source="697" target="G245-s3OqqWEg4Bqu4Ok-731" edge="1">
          <mxGeometry relative="1" as="geometry">
            <Array as="points">
              <mxPoint x="678" y="190" />
            </Array>
            <mxPoint x="620" y="280" as="sourcePoint" />
            <mxPoint x="720" y="350" as="targetPoint" />
          </mxGeometry>
        </mxCell>
        <mxCell id="G245-s3OqqWEg4Bqu4Ok-742" value="auto_answer_table" style="swimlane;fontStyle=0;childLayout=stackLayout;horizontal=1;startSize=26;fillColor=none;horizontalStack=0;resizeParent=1;resizeParentMax=0;resizeLast=0;collapsible=1;marginBottom=0;" parent="1" vertex="1">
          <mxGeometry x="930" y="100" width="140" height="156" as="geometry" />
        </mxCell>
        <mxCell id="G245-s3OqqWEg4Bqu4Ok-743" value="id" style="text;strokeColor=none;fillColor=none;align=left;verticalAlign=top;spacingLeft=4;spacingRight=4;overflow=hidden;rotatable=0;points=[[0,0.5],[1,0.5]];portConstraint=eastwest;" parent="G245-s3OqqWEg4Bqu4Ok-742" vertex="1">
          <mxGeometry y="26" width="140" height="26" as="geometry" />
        </mxCell>
        <mxCell id="G245-s3OqqWEg4Bqu4Ok-744" value="状态" style="text;strokeColor=none;fillColor=none;align=left;verticalAlign=top;spacingLeft=4;spacingRight=4;overflow=hidden;rotatable=0;points=[[0,0.5],[1,0.5]];portConstraint=eastwest;" parent="G245-s3OqqWEg4Bqu4Ok-742" vertex="1">
          <mxGeometry y="52" width="140" height="26" as="geometry" />
        </mxCell>
        <mxCell id="G245-s3OqqWEg4Bqu4Ok-745" value="关键词" style="text;strokeColor=none;fillColor=none;align=left;verticalAlign=top;spacingLeft=4;spacingRight=4;overflow=hidden;rotatable=0;points=[[0,0.5],[1,0.5]];portConstraint=eastwest;" parent="G245-s3OqqWEg4Bqu4Ok-742" vertex="1">
          <mxGeometry y="78" width="140" height="26" as="geometry" />
        </mxCell>
        <mxCell id="G245-s3OqqWEg4Bqu4Ok-746" value="回复内容" style="text;strokeColor=none;fillColor=none;align=left;verticalAlign=top;spacingLeft=4;spacingRight=4;overflow=hidden;rotatable=0;points=[[0,0.5],[1,0.5]];portConstraint=eastwest;" parent="G245-s3OqqWEg4Bqu4Ok-742" vertex="1">
          <mxGeometry y="104" width="140" height="26" as="geometry" />
        </mxCell>
        <mxCell id="G245-s3OqqWEg4Bqu4Ok-747" value="视频号" style="text;strokeColor=none;fillColor=none;align=left;verticalAlign=top;spacingLeft=4;spacingRight=4;overflow=hidden;rotatable=0;points=[[0,0.5],[1,0.5]];portConstraint=eastwest;" parent="G245-s3OqqWEg4Bqu4Ok-742" vertex="1">
          <mxGeometry y="130" width="140" height="26" as="geometry" />
        </mxCell>
        <mxCell id="G245-s3OqqWEg4Bqu4Ok-749" value="" style="strokeColor=#dddddd;fillColor=#ffffff;shadow=1;strokeWidth=1;rounded=1;absoluteArcSize=1;arcSize=2;fontSize=10;fontColor=#9E9E9E;align=center;html=1;" parent="1" vertex="1">
          <mxGeometry x="670" y="450" width="150" height="60" as="geometry" />
        </mxCell>
        <mxCell id="G245-s3OqqWEg4Bqu4Ok-750" value="&lt;font color=&quot;#000000&quot;&gt;调用指令&lt;/font&gt;&lt;br&gt;Cloud service" style="dashed=0;connectable=0;html=1;fillColor=#5184F3;strokeColor=none;shape=mxgraph.gcp2.hexIcon;prIcon=cloud_dataflow;part=1;labelPosition=right;verticalLabelPosition=middle;align=left;verticalAlign=middle;spacingLeft=5;fontColor=#999999;fontSize=12;" parent="G245-s3OqqWEg4Bqu4Ok-749" vertex="1">
          <mxGeometry y="0.5" width="44" height="39" relative="1" as="geometry">
            <mxPoint x="5" y="-19.5" as="offset" />
          </mxGeometry>
        </mxCell>
        <mxCell id="G245-s3OqqWEg4Bqu4Ok-757" value="" style="aspect=fixed;perimeter=ellipsePerimeter;html=1;align=center;shadow=0;dashed=0;fontColor=#4277BB;labelBackgroundColor=#ffffff;fontSize=12;spacingTop=3;image;image=img/lib/ibm/data/data_services.svg;direction=south;" parent="1" vertex="1">
          <mxGeometry x="507" y="520" width="60" height="60" as="geometry" />
        </mxCell>
        <mxCell id="G245-s3OqqWEg4Bqu4Ok-758" style="edgeStyle=orthogonalEdgeStyle;rounded=0;html=1;labelBackgroundColor=none;startFill=1;startSize=4;endArrow=blockThin;endFill=1;endSize=4;jettySize=auto;orthogonalLoop=1;strokeColor=#4284F3;strokeWidth=2;fontSize=12;fontColor=#000000;align=center;dashed=0;entryX=1.017;entryY=-0.075;entryDx=0;entryDy=0;entryPerimeter=0;" parent="1" source="G245-s3OqqWEg4Bqu4Ok-757" target="CRXLnULaYuxXShmCxGCk-724" edge="1">
          <mxGeometry relative="1" as="geometry">
            <Array as="points">
              <mxPoint x="537" y="490" />
              <mxPoint x="541" y="490" />
            </Array>
            <mxPoint x="541" y="469" as="sourcePoint" />
            <mxPoint x="541" y="422" as="targetPoint" />
          </mxGeometry>
        </mxCell>
        <mxCell id="G245-s3OqqWEg4Bqu4Ok-759" style="edgeStyle=orthogonalEdgeStyle;rounded=0;html=1;labelBackgroundColor=none;startFill=1;startSize=4;endArrow=blockThin;endFill=1;endSize=4;jettySize=auto;orthogonalLoop=1;strokeColor=#4284F3;strokeWidth=2;fontSize=12;fontColor=#000000;align=center;dashed=0;entryX=0;entryY=0.5;entryDx=0;entryDy=0;exitX=0.934;exitY=1.029;exitDx=0;exitDy=0;exitPerimeter=0;" parent="1" source="G245-s3OqqWEg4Bqu4Ok-728" target="G245-s3OqqWEg4Bqu4Ok-749" edge="1">
          <mxGeometry relative="1" as="geometry">
            <Array as="points">
              <mxPoint x="610" y="480" />
            </Array>
            <mxPoint x="579" y="480" as="sourcePoint" />
            <mxPoint x="650" y="450" as="targetPoint" />
          </mxGeometry>
        </mxCell>
        <mxCell id="G245-s3OqqWEg4Bqu4Ok-762" value="command_data" style="swimlane;fontStyle=0;childLayout=stackLayout;horizontal=1;startSize=26;fillColor=none;horizontalStack=0;resizeParent=1;resizeParentMax=0;resizeLast=0;collapsible=1;marginBottom=0;" parent="1" vertex="1">
          <mxGeometry x="930" y="460" width="140" height="116" as="geometry" />
        </mxCell>
        <mxCell id="G245-s3OqqWEg4Bqu4Ok-766" value="执行号" style="text;strokeColor=none;fillColor=none;align=left;verticalAlign=top;spacingLeft=4;spacingRight=4;overflow=hidden;rotatable=0;points=[[0,0.5],[1,0.5]];portConstraint=eastwest;" parent="G245-s3OqqWEg4Bqu4Ok-762" vertex="1">
          <mxGeometry y="26" width="140" height="26" as="geometry" />
        </mxCell>
        <mxCell id="G245-s3OqqWEg4Bqu4Ok-767" value="视频号" style="text;strokeColor=none;fillColor=none;align=left;verticalAlign=top;spacingLeft=4;spacingRight=4;overflow=hidden;rotatable=0;points=[[0,0.5],[1,0.5]];portConstraint=eastwest;" parent="G245-s3OqqWEg4Bqu4Ok-762" vertex="1">
          <mxGeometry y="52" width="140" height="38" as="geometry" />
        </mxCell>
        <mxCell id="0b8x4ibgRGntB2Tg0Yww-720" value="回复内容" style="text;strokeColor=none;fillColor=none;align=left;verticalAlign=top;spacingLeft=4;spacingRight=4;overflow=hidden;rotatable=0;points=[[0,0.5],[1,0.5]];portConstraint=eastwest;" parent="G245-s3OqqWEg4Bqu4Ok-762" vertex="1">
          <mxGeometry y="90" width="140" height="26" as="geometry" />
        </mxCell>
        <mxCell id="CRXLnULaYuxXShmCxGCk-720" value="创建指令" style="text;html=1;resizable=0;autosize=1;align=center;verticalAlign=middle;points=[];fillColor=none;strokeColor=none;rounded=0;" parent="1" vertex="1">
          <mxGeometry x="840" y="510" width="60" height="20" as="geometry" />
        </mxCell>
        <mxCell id="CRXLnULaYuxXShmCxGCk-721" style="edgeStyle=orthogonalEdgeStyle;rounded=0;html=1;labelBackgroundColor=none;startFill=1;startSize=4;endArrow=blockThin;endFill=1;endSize=4;jettySize=auto;orthogonalLoop=1;strokeColor=#4284F3;strokeWidth=2;fontSize=12;fontColor=#000000;align=center;dashed=0;exitX=1;exitY=0.75;exitDx=0;exitDy=0;entryX=0.5;entryY=0;entryDx=0;entryDy=0;entryPerimeter=0;" parent="1" source="G245-s3OqqWEg4Bqu4Ok-731" target="0b8x4ibgRGntB2Tg0Yww-724" edge="1">
          <mxGeometry relative="1" as="geometry">
            <Array as="points">
              <mxPoint x="890" y="160" />
              <mxPoint x="890" y="290" />
              <mxPoint x="635" y="290" />
            </Array>
            <mxPoint x="841.25" y="150" as="sourcePoint" />
            <mxPoint x="910" y="210" as="targetPoint" />
          </mxGeometry>
        </mxCell>
        <mxCell id="CRXLnULaYuxXShmCxGCk-723" value="加载 任务到内存，并根据视频号分片" style="text;html=1;resizable=0;autosize=1;align=center;verticalAlign=middle;points=[];fillColor=none;strokeColor=none;rounded=0;" parent="1" vertex="1">
          <mxGeometry x="567" y="260" width="210" height="20" as="geometry" />
        </mxCell>
        <mxCell id="CRXLnULaYuxXShmCxGCk-724" value="用户活动" style="text;html=1;resizable=0;autosize=1;align=center;verticalAlign=middle;points=[];fillColor=none;strokeColor=none;rounded=0;" parent="1" vertex="1">
          <mxGeometry x="480" y="440" width="60" height="20" as="geometry" />
        </mxCell>
        <mxCell id="G245-s3OqqWEg4Bqu4Ok-719" value="" style="verticalLabelPosition=bottom;html=1;verticalAlign=top;align=center;strokeColor=none;fillColor=#00BEF2;shape=mxgraph.azure.mobile;pointerEvents=1;" parent="1" vertex="1">
          <mxGeometry x="706.25" y="827" width="35" height="50" as="geometry" />
        </mxCell>
        <mxCell id="PuhiZ39EmkUhV1063GtV-720" value="指令服务" style="points=[[0,0,0],[0.25,0,0],[0.5,0,0],[0.75,0,0],[1,0,0],[1,0.25,0],[1,0.5,0],[1,0.75,0],[1,1,0],[0.75,1,0],[0.5,1,0],[0.25,1,0],[0,1,0],[0,0.75,0],[0,0.5,0],[0,0.25,0]];rounded=1;absoluteArcSize=1;arcSize=2;html=1;strokeColor=none;gradientColor=none;shadow=0;dashed=0;fontSize=12;fontColor=#9E9E9E;align=left;verticalAlign=top;spacing=10;spacingTop=-4;fillColor=#E0F2F1;" parent="1" vertex="1">
          <mxGeometry x="450" y="630" width="420" height="150" as="geometry" />
        </mxCell>
        <mxCell id="PuhiZ39EmkUhV1063GtV-721" value="" style="strokeColor=#dddddd;shadow=1;strokeWidth=1;rounded=1;absoluteArcSize=1;arcSize=2;" parent="1" vertex="1">
          <mxGeometry x="676.25" y="667.5" width="155" height="60" as="geometry" />
        </mxCell>
        <mxCell id="PuhiZ39EmkUhV1063GtV-722" value="CommandService" style="dashed=0;connectable=0;html=1;fillColor=#5184F3;strokeColor=none;shape=mxgraph.gcp2.hexIcon;prIcon=gke_on_prem;part=1;labelPosition=right;verticalLabelPosition=middle;align=left;verticalAlign=middle;spacingLeft=5;fontColor=#999999;fontSize=12;" parent="PuhiZ39EmkUhV1063GtV-721" vertex="1">
          <mxGeometry y="0.5" width="44" height="39" relative="1" as="geometry">
            <mxPoint x="5" y="-19.5" as="offset" />
          </mxGeometry>
        </mxCell>
        <mxCell id="PuhiZ39EmkUhV1063GtV-723" style="edgeStyle=orthogonalEdgeStyle;rounded=0;html=1;labelBackgroundColor=none;startFill=1;startSize=4;endArrow=blockThin;endFill=1;endSize=4;jettySize=auto;orthogonalLoop=1;strokeColor=#4284F3;strokeWidth=2;fontSize=12;fontColor=#000000;align=center;dashed=0;" parent="PuhiZ39EmkUhV1063GtV-721" edge="1">
          <mxGeometry relative="1" as="geometry">
            <Array as="points">
              <mxPoint x="55" y="60" />
              <mxPoint x="55" y="60" />
            </Array>
            <mxPoint x="55" y="77" as="sourcePoint" />
            <mxPoint x="55" y="210" as="targetPoint" />
          </mxGeometry>
        </mxCell>
        <mxCell id="PuhiZ39EmkUhV1063GtV-724" value="websocket" style="edgeLabel;html=1;align=center;verticalAlign=middle;resizable=0;points=[];" parent="PuhiZ39EmkUhV1063GtV-723" vertex="1" connectable="0">
          <mxGeometry x="-0.0659" y="1" relative="1" as="geometry">
            <mxPoint x="29" y="4" as="offset" />
          </mxGeometry>
        </mxCell>
        <mxCell id="PuhiZ39EmkUhV1063GtV-725" style="edgeStyle=orthogonalEdgeStyle;rounded=0;html=1;labelBackgroundColor=none;startFill=1;startSize=4;endArrow=blockThin;endFill=1;endSize=4;jettySize=auto;orthogonalLoop=1;strokeColor=#4284F3;strokeWidth=2;fontSize=12;fontColor=#000000;align=center;dashed=0;entryX=0;entryY=0.75;entryDx=0;entryDy=0;" parent="1" target="PuhiZ39EmkUhV1063GtV-721" edge="1">
          <mxGeometry relative="1" as="geometry">
            <Array as="points">
              <mxPoint x="541" y="713" />
            </Array>
            <mxPoint x="541" y="830" as="sourcePoint" />
            <mxPoint x="540.5" y="1067" as="targetPoint" />
          </mxGeometry>
        </mxCell>
        <mxCell id="PuhiZ39EmkUhV1063GtV-726" value="用户活动上报" style="edgeLabel;html=1;align=center;verticalAlign=middle;resizable=0;points=[];" parent="PuhiZ39EmkUhV1063GtV-725" vertex="1" connectable="0">
          <mxGeometry x="-0.2945" y="2" relative="1" as="geometry">
            <mxPoint x="1" as="offset" />
          </mxGeometry>
        </mxCell>
        <mxCell id="PuhiZ39EmkUhV1063GtV-727" style="edgeStyle=orthogonalEdgeStyle;rounded=0;html=1;labelBackgroundColor=none;startFill=1;startSize=4;endArrow=blockThin;endFill=1;endSize=4;jettySize=auto;orthogonalLoop=1;strokeColor=#4284F3;strokeWidth=2;fontSize=12;fontColor=#000000;align=center;dashed=0;entryX=1;entryY=0.5;entryDx=0;entryDy=0;exitX=0;exitY=0.25;exitDx=0;exitDy=0;" parent="1" source="PuhiZ39EmkUhV1063GtV-721" target="G245-s3OqqWEg4Bqu4Ok-757" edge="1">
          <mxGeometry relative="1" as="geometry">
            <Array as="points">
              <mxPoint x="537" y="683" />
            </Array>
            <mxPoint x="551" y="840" as="sourcePoint" />
            <mxPoint x="685" y="665" as="targetPoint" />
          </mxGeometry>
        </mxCell>
        <mxCell id="jsMgI3IwnFYApVVyTUsu-719" style="edgeStyle=orthogonalEdgeStyle;rounded=0;html=1;labelBackgroundColor=none;startFill=1;startSize=4;endArrow=blockThin;endFill=1;endSize=4;jettySize=auto;orthogonalLoop=1;strokeColor=#4284F3;strokeWidth=2;fontSize=12;fontColor=#000000;align=center;dashed=0;entryX=1;entryY=0.25;entryDx=0;entryDy=0;exitX=0.479;exitY=1.135;exitDx=0;exitDy=0;exitPerimeter=0;" parent="1" source="0b8x4ibgRGntB2Tg0Yww-720" target="PuhiZ39EmkUhV1063GtV-721" edge="1">
          <mxGeometry relative="1" as="geometry">
            <Array as="points">
              <mxPoint x="997" y="683" />
              <mxPoint x="840" y="683" />
            </Array>
            <mxPoint x="834" y="500" as="sourcePoint" />
            <mxPoint x="910" y="500" as="targetPoint" />
          </mxGeometry>
        </mxCell>
        <mxCell id="0b8x4ibgRGntB2Tg0Yww-721" value="&lt;span style=&quot;font-size: 12px ; background-color: rgb(248 , 249 , 250)&quot;&gt;指令下发&lt;/span&gt;" style="edgeLabel;html=1;align=center;verticalAlign=middle;resizable=0;points=[];" parent="jsMgI3IwnFYApVVyTUsu-719" vertex="1" connectable="0">
          <mxGeometry x="-0.5211" y="1" relative="1" as="geometry">
            <mxPoint as="offset" />
          </mxGeometry>
        </mxCell>
        <mxCell id="0b8x4ibgRGntB2Tg0Yww-719" value="" style="edgeStyle=orthogonalEdgeStyle;fontSize=12;html=1;endArrow=blockThin;endFill=1;rounded=0;strokeWidth=2;endSize=4;startSize=4;strokeColor=#34A853;dashed=0;entryX=0;entryY=0.5;entryDx=0;entryDy=0;exitX=1;exitY=0.5;exitDx=0;exitDy=0;" parent="1" source="G245-s3OqqWEg4Bqu4Ok-749" target="G245-s3OqqWEg4Bqu4Ok-766" edge="1">
          <mxGeometry width="100" relative="1" as="geometry">
            <mxPoint x="900" y="600" as="sourcePoint" />
            <mxPoint x="900" y="550" as="targetPoint" />
          </mxGeometry>
        </mxCell>
        <mxCell id="0b8x4ibgRGntB2Tg0Yww-722" value="" style="html=1;dashed=0;whitespace=wrap;fillColor=#2875E2;strokeColor=#ffffff;points=[[0.005,0.63,0],[0.1,0.2,0],[0.9,0.2,0],[0.5,0,0],[0.995,0.63,0],[0.72,0.99,0],[0.5,1,0],[0.28,0.99,0]];shape=mxgraph.kubernetes.icon;prIcon=node" parent="1" vertex="1">
          <mxGeometry x="516" y="324" width="50" height="48" as="geometry" />
        </mxCell>
        <mxCell id="0b8x4ibgRGntB2Tg0Yww-723" value="" style="html=1;dashed=0;whitespace=wrap;fillColor=#2875E2;strokeColor=#ffffff;points=[[0.005,0.63,0],[0.1,0.2,0],[0.9,0.2,0],[0.5,0,0],[0.995,0.63,0],[0.72,0.99,0],[0.5,1,0],[0.28,0.99,0]];shape=mxgraph.kubernetes.icon;prIcon=node" parent="1" vertex="1">
          <mxGeometry x="562" y="324" width="50" height="48" as="geometry" />
        </mxCell>
        <mxCell id="0b8x4ibgRGntB2Tg0Yww-724" value="" style="html=1;dashed=0;whitespace=wrap;fillColor=#2875E2;strokeColor=#ffffff;points=[[0.005,0.63,0],[0.1,0.2,0],[0.9,0.2,0],[0.5,0,0],[0.995,0.63,0],[0.72,0.99,0],[0.5,1,0],[0.28,0.99,0]];shape=mxgraph.kubernetes.icon;prIcon=node" parent="1" vertex="1">
          <mxGeometry x="610" y="324" width="50" height="48" as="geometry" />
        </mxCell>
        <mxCell id="pOnPUVLGnlh98pnRLNdT-719" style="edgeStyle=orthogonalEdgeStyle;rounded=0;html=1;labelBackgroundColor=none;startFill=1;startSize=4;endArrow=blockThin;endFill=1;endSize=4;jettySize=auto;orthogonalLoop=1;strokeColor=#4284F3;strokeWidth=2;fontSize=12;fontColor=#000000;align=center;dashed=0;entryX=0.5;entryY=0;entryDx=0;entryDy=0;entryPerimeter=0;" edge="1" parent="1" target="0b8x4ibgRGntB2Tg0Yww-722">
          <mxGeometry relative="1" as="geometry">
            <Array as="points">
              <mxPoint x="541" y="290" />
            </Array>
            <mxPoint x="640" y="290" as="sourcePoint" />
            <mxPoint x="587" y="250" as="targetPoint" />
          </mxGeometry>
        </mxCell>
        <mxCell id="pOnPUVLGnlh98pnRLNdT-720" style="edgeStyle=orthogonalEdgeStyle;rounded=0;html=1;labelBackgroundColor=none;startFill=1;startSize=4;endArrow=blockThin;endFill=1;endSize=4;jettySize=auto;orthogonalLoop=1;strokeColor=#4284F3;strokeWidth=2;fontSize=12;fontColor=#000000;align=center;dashed=0;" edge="1" parent="1">
          <mxGeometry relative="1" as="geometry">
            <Array as="points">
              <mxPoint x="586.9300000000001" y="294.03" />
            </Array>
            <mxPoint x="587" y="294" as="sourcePoint" />
            <mxPoint x="586.5" y="326" as="targetPoint" />
          </mxGeometry>
        </mxCell>
        <mxCell id="pOnPUVLGnlh98pnRLNdT-721" value="1" style="text;html=1;resizable=0;autosize=1;align=center;verticalAlign=middle;points=[];fillColor=#d80073;strokeColor=#A50040;rounded=0;fontColor=#ffffff;fontSize=24;" vertex="1" parent="1">
          <mxGeometry x="725" y="285" width="30" height="30" as="geometry" />
        </mxCell>
        <mxCell id="pOnPUVLGnlh98pnRLNdT-722" value="2" style="text;html=1;resizable=0;autosize=1;align=center;verticalAlign=middle;points=[];fillColor=#d80073;strokeColor=#A50040;rounded=0;fontColor=#ffffff;fontSize=24;" vertex="1" parent="1">
          <mxGeometry x="495" y="460" width="30" height="30" as="geometry" />
        </mxCell>
        <mxCell id="pOnPUVLGnlh98pnRLNdT-723" value="3" style="text;html=1;resizable=0;autosize=1;align=center;verticalAlign=middle;points=[];fillColor=#d80073;strokeColor=#A50040;rounded=0;fontColor=#ffffff;fontSize=24;" vertex="1" parent="1">
          <mxGeometry x="620" y="490" width="30" height="30" as="geometry" />
        </mxCell>
      </root>
    </mxGraphModel>
  </diagram>
</mxfile>
